<?xml version="1.0" standalone="no"?>
<!DOCTYPE svg PUBLIC "-//W3C//DTD SVG 20010904//EN"
 "http://www.w3.org/TR/2001/REC-SVG-20010904/DTD/svg10.dtd">
<svg version="1.0" xmlns="http://www.w3.org/2000/svg"
 width="474.000000pt" height="460.000000pt" viewBox="0 0 474.000000 460.000000"
 preserveAspectRatio="xMidYMid meet">

<g transform="translate(0.000000,460.000000) scale(0.100000,-0.100000)"
fill="#000000" stroke="none">
<path d="M2090 4541 l0 -60 -42 -5 c-24 -3 -198 -7 -388 -9 -190 -2 -353 -7
-363 -12 -18 -7 -14 -12 101 -111 l24 -22 9 -863 c5 -474 7 -865 5 -867 -3 -2
-12 9 -21 25 l-16 28 6 -35 c3 -19 9 -55 12 -79 l6 -44 -34 25 c-46 35 -139
80 -229 111 -97 33 -187 56 -194 49 -3 -3 -6 -22 -6 -42 0 -37 1 -37 48 -44
120 -16 313 -106 400 -186 39 -35 41 -39 32 -70 -10 -34 -39 -81 -83 -135
l-25 -30 -58 41 c-76 53 -124 77 -204 102 -36 11 -73 23 -82 27 -16 6 -18 1
-18 -38 0 -44 0 -44 40 -51 79 -12 270 -100 270 -124 0 -10 -218 -145 -472
-293 -108 -63 -195 -115 -194 -117 2 -1 113 39 247 90 178 67 256 91 287 90
76 -1 290 -62 593 -168 451 -157 614 -195 829 -195 203 -1 322 31 740 196 335
132 467 171 635 187 26 3 30 8 33 36 3 30 1 32 -20 28 -13 -3 -48 -8 -78 -11
-58 -6 -227 -46 -270 -63 -679 -281 -810 -325 -1011 -338 -207 -14 -394 35
-839 218 -85 36 -163 67 -172 71 -16 6 -15 11 7 59 14 29 30 78 36 108 6 30
13 61 15 67 2 7 47 -31 101 -85 163 -162 357 -278 600 -358 195 -65 211 -65
372 -9 434 149 740 401 862 710 8 19 13 25 16 15 2 -11 21 1 61 41 32 30 90
75 130 98 69 42 274 121 311 121 13 0 21 10 25 32 3 17 5 33 3 35 -2 1 -61
-13 -130 -32 -199 -54 -309 -118 -363 -211 -14 -24 -28 -44 -30 -44 -1 0 4 19
14 43 19 47 20 189 13 1301 l-3 588 71 72 70 71 -332 2 c-182 1 -365 4 -404 8
l-73 7 0 54 0 54 -435 0 -435 0 0 -59z m777 -43 c-3 -26 -1 -38 9 -42 16 -6
19 -46 4 -46 -5 0 -10 -7 -10 -15 0 -21 -48 -38 -80 -29 -14 4 -32 8 -40 8 -9
1 -16 13 -18 29 -3 21 1 27 15 27 25 0 75 54 67 74 -8 21 -24 20 -39 -1 -11
-15 -15 -15 -29 -4 -9 7 -16 19 -16 26 0 20 60 32 104 21 37 -10 38 -12 33
-48z m-579 34 c19 -13 5 -175 -15 -168 -8 4 -21 6 -29 6 -10 0 -14 14 -14 56
l0 56 -30 -7 c-38 -8 -43 20 -5 29 14 4 28 13 31 21 7 16 41 20 62 7z m185 -4
c36 -17 51 -61 35 -105 -10 -28 -20 -36 -62 -48 -65 -20 -69 -19 -82 10 -12
24 -12 25 33 22 27 -1 47 3 50 9 2 7 -11 11 -36 10 -48 -1 -62 11 -64 55 -2
30 2 35 33 46 45 16 60 16 93 1z m209 -51 c22 -72 14 -92 -44 -108 -32 -8 -47
-8 -61 0 -10 7 -22 9 -26 6 -9 -5 -21 17 -21 36 0 16 49 10 58 -7 6 -11 16
-14 31 -9 27 8 28 45 1 52 -20 5 -29 33 -10 33 6 0 10 5 10 10 0 6 -11 10 -24
10 -13 0 -32 3 -40 6 -30 11 13 32 63 30 l45 -1 18 -58z m912 -87 l-29 -53
-215 6 c-118 4 -252 7 -297 7 l-83 0 0 38 c0 21 2 41 4 43 2 2 149 6 326 8
l322 3 -28 -52z m-1494 -10 l0 -40 -293 0 -293 0 -43 33 -42 32 133 5 c73 3
224 7 336 8 l202 2 0 -40z m-210 -114 c0 -8 -28 -30 -62 -48 -34 -18 -63 -40
-66 -48 -2 -10 3 -8 14 5 11 13 18 16 21 8 2 -7 10 -10 18 -7 8 3 11 12 8 20
-3 8 1 14 9 14 22 0 29 -12 17 -27 -8 -9 -8 -13 -1 -13 6 0 14 5 17 10 3 6 11
10 17 10 21 0 -14 -29 -43 -35 -30 -7 -55 -38 -44 -55 4 -6 0 -13 -8 -16 -21
-8 -10 -44 22 -72 l26 -23 -27 5 c-20 5 -33 0 -52 -19 -26 -26 -50 -32 -61
-15 -3 6 5 14 19 20 24 9 63 56 54 65 -2 3 -32 -9 -65 -27 -41 -21 -67 -29
-79 -24 -15 6 -5 13 45 31 71 26 95 46 105 88 5 22 3 27 -12 27 -10 0 -24 -6
-32 -12 -8 -7 -6 -3 5 10 16 19 17 26 7 42 -17 28 -15 51 6 66 24 19 32 17 32
-6 0 -20 1 -20 32 -4 18 9 38 23 46 30 18 18 32 18 32 0z m230 -41 c6 -8 9
-23 6 -33 -6 -16 -2 -19 19 -14 34 6 32 -16 -2 -29 -30 -11 -63 -42 -63 -59 0
-6 -7 -13 -15 -16 -10 -4 -13 -13 -10 -25 4 -13 1 -18 -12 -17 -10 1 -33 -2
-50 -6 -49 -11 -33 19 20 36 46 15 58 33 27 43 -19 6 -18 8 12 29 27 18 34 29
36 64 3 44 12 52 32 27z m1250 -3 c0 -3 -7 -13 -16 -23 -14 -16 -12 -16 22 2
21 10 44 19 51 19 18 0 16 -25 -2 -40 -20 -17 -19 -40 3 -56 15 -12 15 -13
-10 -14 -15 0 -30 -4 -33 -10 -3 -5 -21 -10 -38 -10 -18 0 -41 -7 -51 -15 -14
-10 -15 -15 -6 -15 18 0 -60 -79 -77 -80 -7 0 -13 9 -13 20 0 19 95 100 118
100 7 0 12 5 12 10 0 10 -13 14 -36 11 -6 -1 -14 13 -18 30 -3 18 -14 38 -24
45 -9 7 -14 16 -9 20 4 4 17 -2 30 -13 27 -24 55 -19 63 12 4 15 11 22 20 18
8 -3 14 -8 14 -11z m-570 -32 c-18 -11 -24 -6 -16 16 5 14 9 15 19 5 9 -9 9
-14 -3 -21z m-406 12 c9 -15 -44 -81 -84 -107 -58 -37 -59 -31 -1 26 28 27 51
59 51 70 0 19 24 27 34 11z m648 -17 c11 -25 10 -33 -19 -112 -3 -8 3 -13 17
-13 l22 0 -24 -30 c-12 -16 -33 -43 -45 -59 -12 -16 -32 -31 -43 -34 -28 -7
-25 -1 15 34 44 39 44 50 3 38 -40 -11 -48 -11 -48 -1 0 5 17 13 37 18 43 10
50 27 52 127 1 61 14 73 33 32z m-418 -66 c-8 -14 -21 -11 -28 7 -4 9 -1 23 6
31 10 13 13 12 20 -7 4 -12 6 -26 2 -31z m100 39 c-7 -11 -51 -10 -58 1 -3 5
10 9 28 8 19 0 33 -5 30 -9z m-514 -38 c0 -23 -20 -70 -30 -70 -4 0 -3 20 3
45 11 46 27 61 27 25z m278 0 c-16 -26 -42 -34 -65 -21 -15 8 -16 10 -3 15 8
2 29 9 45 14 17 6 31 11 33 11 1 1 -3 -8 -10 -19z m777 4 c20 -15 20 -15 1
-30 -22 -15 -36 -5 -36 29 0 21 9 21 35 1z m-1111 -12 c-11 -10 -19 -23 -16
-30 2 -8 -5 -20 -17 -28 -29 -21 -26 -46 9 -72 16 -12 32 -22 35 -22 3 0 5 19
6 43 1 37 2 39 9 16 9 -31 2 -76 -13 -86 -6 -3 -21 6 -34 21 -23 27 -43 27
-43 0 0 -8 -7 -14 -15 -14 -8 0 -15 4 -15 9 0 5 -2 16 -6 24 -3 8 7 29 23 47
15 18 28 40 30 49 2 16 48 61 61 61 4 -1 -2 -8 -14 -18z m656 4 c0 -8 -4 -18
-10 -21 -5 -3 -10 -17 -10 -31 0 -27 -15 -32 -24 -8 -4 10 1 25 10 35 9 10 13
23 9 28 -3 6 1 11 9 11 9 0 16 -6 16 -14z m-900 -16 c0 -5 -19 -10 -42 -9 -33
0 -38 2 -23 9 28 12 65 12 65 0z m455 -30 c-7 -11 -45 -14 -45 -3 0 3 8 15 17
25 15 17 18 17 25 3 5 -8 6 -20 3 -25z m315 3 c0 -13 3 -13 15 -3 9 8 15 9 15
2 0 -6 -4 -14 -10 -17 -5 -3 -10 -15 -10 -26 0 -11 -7 -31 -16 -44 -11 -17
-14 -36 -10 -55 4 -22 2 -30 -9 -30 -18 0 -30 39 -16 53 20 20 12 26 -21 16
-47 -13 -55 -11 -35 8 10 10 25 18 35 18 21 0 23 29 2 31 -33 3 -34 5 -16 19
26 20 37 19 29 -1 -4 -12 -2 -15 8 -12 8 3 13 13 11 23 -5 24 6 47 18 40 5 -3
10 -13 10 -22z m645 -3 c-3 -5 -12 -10 -18 -10 -7 0 -6 4 3 10 19 12 23 12 15
0z m-856 -17 c-12 -15 -12 -16 5 -10 14 6 16 4 9 -5 -6 -7 -18 -35 -27 -63
-26 -80 -32 -80 -31 0 1 77 9 94 44 95 11 0 11 -3 0 -17z m895 1 c20 -8 21
-24 1 -24 -8 0 -15 -6 -15 -14 0 -10 9 -14 27 -13 19 1 28 -3 31 -16 3 -15 0
-18 -17 -12 -17 5 -23 1 -31 -20 -5 -14 -10 -41 -10 -59 0 -42 -7 -48 -35 -30
-30 20 -43 49 -16 34 15 -8 20 -5 25 13 9 35 7 47 -9 47 -25 0 -65 -23 -65
-37 0 -16 -16 -17 -26 -1 -8 13 35 48 80 64 33 11 47 34 22 34 -22 0 -20 27 2
33 9 3 18 5 19 6 1 0 8 -2 17 -5z m-614 -33 c0 -11 -3 -27 -7 -37 -6 -16 -7
-16 -13 2 -8 22 -1 54 11 54 5 0 9 -9 9 -19z m110 -6 c7 -8 10 -25 6 -40 -6
-23 -11 -25 -54 -24 l-47 2 38 10 c35 10 38 13 33 39 -6 31 5 36 24 13z m-544
-34 c-9 -13 -36 -15 -36 -2 0 5 3 17 6 26 6 15 8 15 22 2 8 -8 11 -20 8 -26z
m34 19 c0 -5 -5 -10 -11 -10 -5 0 -7 5 -4 10 3 6 8 10 11 10 2 0 4 -4 4 -10z
m-380 -25 c0 -8 -4 -15 -10 -15 -5 0 -7 7 -4 15 4 8 8 15 10 15 2 0 4 -7 4
-15z m1116 -10 c29 -20 33 -26 20 -31 -9 -4 -18 -5 -19 -3 -1 2 -13 16 -26 32
-30 34 -23 34 25 2z m-1298 -74 c-3 -28 -16 -35 -38 -21 -11 7 -12 14 -3 32 6
13 14 32 18 43 7 19 8 19 16 -5 6 -13 9 -35 7 -49z m1783 -366 c4 -154 7 -449
8 -655 1 -358 0 -378 -20 -430 -39 -102 -149 -296 -133 -234 4 15 -19 53 -82
140 -48 65 -179 246 -291 402 -112 155 -207 282 -209 282 -3 0 10 -21 29 -47
60 -84 289 -412 416 -595 131 -191 130 -188 78 -236 l-25 -23 -24 33 c-36 48
-200 278 -398 558 -96 135 -213 300 -262 367 -48 68 -97 137 -107 154 l-19 31
-41 -59 c-56 -80 -305 -443 -551 -803 -113 -164 -209 -299 -215 -299 -11 0
-65 81 -65 97 0 6 75 118 167 249 92 131 187 266 211 301 24 34 42 62 39 62
-2 0 -100 -133 -218 -296 l-213 -297 -23 54 c-13 30 -46 88 -73 129 l-49 75
-7 646 -7 646 834 8 c459 4 920 10 1024 14 105 4 197 7 205 6 13 0 16 -41 21
-280z m-988 -548 c38 -53 115 -161 332 -462 87 -121 203 -283 258 -360 l99
-140 -44 -38 c-79 -70 -217 -156 -276 -173 -31 -9 -66 -24 -76 -35 -19 -18
-23 -14 -179 207 l-159 225 -89 -133 c-225 -335 -211 -317 -236 -305 -14 6
-22 16 -19 24 3 7 62 100 132 206 125 191 149 239 39 77 -124 -181 -196 -280
-205 -280 -16 0 -40 12 -40 21 0 5 26 48 59 96 177 266 241 363 238 363 -2 0
-78 -99 -168 -220 -90 -120 -168 -219 -174 -220 -17 0 -130 72 -209 134 l-75
59 32 46 c17 25 92 129 167 231 75 102 221 302 324 445 104 143 196 268 204
278 18 20 21 18 65 -46z m-1041 -831 c2 -63 0 -72 -31 -140 l-29 -65 -39 14
c-21 8 -64 21 -96 30 l-59 16 80 62 c44 34 95 83 113 109 30 41 36 44 47 30 6
-9 13 -34 14 -56z m1147 -189 c73 -109 134 -204 137 -210 5 -14 -80 -50 -205
-88 l-74 -22 -144 48 c-78 26 -143 52 -143 57 0 18 283 429 290 421 4 -4 67
-97 139 -206z"/>
<path d="M2798 4443 c-19 -5 -22 -12 -12 -37 9 -23 31 -19 38 7 10 39 10 40
-26 30z"/>
<path d="M2404 4502 c-11 -6 -2 -52 10 -52 20 0 36 16 36 36 0 24 -22 32 -46
16z"/>
<path d="M3387 4194 c-3 -3 -3 -12 -1 -19 3 -7 1 -16 -5 -20 -15 -9 -14 -38 1
-33 7 3 16 21 19 41 5 34 1 45 -14 31z"/>
<path d="M2379 3730 c-2 -16 2 -196 7 -323 5 -95 11 -146 17 -144 7 2 10 75 8
215 -2 130 1 212 7 212 5 0 35 -11 67 -25 l57 -25 38 30 c21 16 49 30 64 30
l25 0 4 -127 3 -128 2 145 2 146 -150 -1 c-82 0 -150 -2 -151 -5z"/>
<path d="M3086 3599 c8 -237 16 -339 25 -339 5 0 9 98 9 225 l0 225 55 0 55 0
0 -107 c0 -60 3 -162 7 -228 l6 -119 126 -176 c70 -96 130 -180 133 -185 3 -6
9 -64 13 -130 8 -145 26 -157 -184 122 -84 112 -156 205 -161 208 -4 2 -36
-38 -70 -91 -35 -52 -66 -97 -70 -99 -7 -4 -90 97 -90 109 0 2 25 42 57 88 67
98 47 85 -30 -22 l-55 -75 49 -72 c29 -43 54 -70 62 -67 6 3 43 50 80 105 37
55 72 97 76 94 5 -2 80 -108 166 -234 104 -151 163 -227 172 -224 10 4 13 34
13 128 0 68 2 130 5 137 3 8 -48 89 -116 184 -67 93 -130 180 -140 194 -16 22
-18 52 -21 242 -2 119 -5 219 -8 222 -3 3 -42 8 -87 12 l-82 7 5 -134z"/>
<path d="M1807 3481 l-6 -240 -134 -178 -135 -178 -4 -143 c-3 -131 -2 -143
15 -148 10 -3 20 -4 21 -2 1 1 78 110 171 240 l169 237 68 -102 c37 -56 71
-103 75 -104 5 -1 28 26 52 60 l43 62 -51 -50 c-33 -32 -54 -46 -59 -39 -72
112 -128 194 -134 194 -7 0 -23 -23 -218 -295 l-105 -146 -6 103 -5 103 75
115 c41 63 101 151 133 196 l58 81 -7 226 -6 227 61 0 c34 0 65 0 70 0 7 0 6
-116 -4 -326 l-6 -120 92 -112 c51 -62 94 -112 96 -112 2 0 -33 51 -77 113
l-81 112 7 233 8 232 -85 0 -85 0 -6 -239z"/>
<path d="M3164 3444 c8 -262 -8 -216 140 -409 81 -105 139 -170 89 -99 -11 16
-60 85 -109 154 l-89 125 -5 224 c-4 181 -8 225 -19 229 -12 4 -13 -30 -7
-224z"/>
<path d="M1890 3650 c0 -5 5 -10 10 -10 6 0 10 5 10 10 0 6 -4 10 -10 10 -5 0
-10 -4 -10 -10z"/>
<path d="M2524 3549 c3 -34 6 -105 6 -157 0 -52 2 -93 4 -91 2 2 6 73 10 157
6 138 5 152 -10 152 -15 0 -16 -8 -10 -61z"/>
<path d="M1729 2988 c-57 -79 -115 -153 -128 -166 -24 -22 -23 -39 1 -29 12 4
244 337 235 337 -3 0 -51 -64 -108 -142z"/>
<path d="M2100 2860 c-12 -16 -19 -30 -16 -30 2 0 14 14 26 30 12 17 19 30 16
30 -2 0 -14 -13 -26 -30z"/>
<path d="M3450 2806 c0 -9 7 -16 16 -16 9 0 14 5 12 12 -6 18 -28 21 -28 4z"/>
<path d="M2303 2693 c-72 -93 -76 -102 -60 -126 16 -24 140 -173 164 -197 14
-13 15 -13 7 0 -5 9 -42 64 -82 123 -72 107 -72 107 -55 133 16 26 17 26 32 7
66 -82 71 -86 36 -33 -40 62 -41 67 -19 91 15 17 22 10 106 -109 50 -70 92
-129 93 -130 10 -11 43 25 119 127 47 63 88 116 90 119 3 2 19 -23 36 -57 l30
-61 -90 -120 c-49 -65 -90 -126 -90 -135 0 -16 213 -320 253 -360 11 -11 -35
62 -102 163 -140 211 -138 169 -22 342 39 58 71 111 71 118 0 19 -84 142 -97
142 -7 0 -49 -54 -93 -120 -44 -66 -82 -120 -85 -120 -2 0 -45 54 -95 120 -50
66 -97 120 -104 120 -8 0 -27 -17 -43 -37z"/>
<path d="M2627 2465 c-89 -116 -116 -164 -84 -152 6 2 11 10 9 16 -2 9 69 114
156 229 13 17 22 32 20 32 -3 0 -48 -56 -101 -125z"/>
<path d="M2380 2536 c0 -2 8 -10 18 -17 15 -13 16 -12 3 4 -13 16 -21 21 -21
13z"/>
<path d="M2900 1921 c5 -11 15 -23 21 -27 6 -3 3 5 -6 20 -20 30 -30 35 -15 7z"/>
<path d="M1185 2960 c-3 -5 -1 -10 4 -10 6 0 11 5 11 10 0 6 -2 10 -4 10 -3 0
-8 -4 -11 -10z"/>
<path d="M3950 2956 c0 -2 8 -10 18 -17 15 -13 16 -12 3 4 -13 16 -21 21 -21
13z"/>
<path d="M4040 2324 c-114 -43 -214 -98 -256 -141 l-41 -42 -36 37 c-20 20
-50 62 -66 92 -17 30 -31 51 -31 45 0 -13 55 -105 78 -130 10 -11 36 -37 58
-58 l40 -37 51 49 c50 48 200 131 264 146 20 5 28 14 31 36 6 36 -5 37 -92 3z"/>
<path d="M3840 1770 c0 -27 -17 -34 -23 -10 -6 25 -27 26 -27 2 0 -18 36 -60
43 -51 10 13 41 65 41 68 1 2 -7 5 -16 7 -12 1 -18 -4 -18 -16z"/>
<path d="M1262 1747 c-14 -16 -4 -57 13 -57 7 0 15 -6 18 -12 2 -7 8 -10 12
-6 4 4 0 15 -10 24 -10 10 -15 27 -12 41 5 25 -5 30 -21 10z"/>
<path d="M1307 1753 c-3 -5 -1 -17 4 -28 4 -11 8 -15 8 -8 1 6 4 18 7 27 6 16
-11 23 -19 9z"/>
<path d="M3550 1724 c0 -8 5 -12 10 -9 6 3 10 10 10 16 0 5 -4 9 -10 9 -5 0
-10 -7 -10 -16z"/>
<path d="M3630 1729 c0 -35 24 -99 37 -99 11 0 14 6 9 23 -4 12 -9 37 -13 55
-5 29 -33 47 -33 21z"/>
<path d="M1342 1718 c-7 -7 -12 -28 -11 -47 0 -34 1 -35 10 -11 6 14 20 35 31
47 21 22 21 23 2 23 -11 0 -25 -5 -32 -12z"/>
<path d="M1460 1690 c0 -5 5 -10 10 -10 6 0 10 5 10 10 0 6 -4 10 -10 10 -5 0
-10 -4 -10 -10z"/>
<path d="M3496 1676 c3 -13 1 -27 -5 -30 -6 -4 -13 4 -17 19 -6 24 -18 33 -27
18 -8 -13 23 -103 34 -103 7 0 9 11 7 25 -6 30 -1 31 20 5 12 -13 21 -17 31
-11 11 7 9 13 -8 30 -17 17 -19 26 -11 40 7 15 6 20 -6 25 -24 9 -25 8 -18
-18z"/>
<path d="M3555 1690 c4 -6 19 -17 35 -25 25 -13 29 -13 24 -1 -3 8 -19 19 -35
25 -18 6 -27 6 -24 1z"/>
<path d="M3817 1686 c-3 -8 2 -16 14 -19 22 -6 25 6 5 22 -10 9 -15 8 -19 -3z"/>
<path d="M1405 1657 c-13 -31 -20 -37 -35 -32 -12 4 -20 2 -20 -5 0 -19 29
-23 55 -6 30 20 36 20 29 3 -3 -8 1 -19 9 -25 11 -10 14 -4 14 33 0 25 -3 43
-5 40 -3 -3 -11 3 -18 13 -11 15 -14 13 -29 -21z"/>
<path d="M1520 1674 c0 -8 5 -12 10 -9 6 3 10 10 10 16 0 5 -4 9 -10 9 -5 0
-10 -7 -10 -16z"/>
<path d="M1553 1668 c2 -7 10 -12 16 -10 7 1 11 -14 11 -40 l1 -43 16 30 c9
17 21 33 27 37 6 4 8 8 5 8 -4 0 -23 7 -44 16 -28 12 -36 12 -32 2z"/>
<path d="M1260 1645 c7 -8 17 -15 22 -15 6 0 5 7 -2 15 -7 8 -17 15 -22 15 -6
0 -5 -7 2 -15z"/>
<path d="M3340 1650 c0 -12 38 -80 45 -80 1 0 -3 19 -10 42 -11 39 -35 65 -35
38z"/>
<path d="M1642 1594 c-1 -26 -6 -52 -12 -59 -8 -9 -6 -14 5 -19 10 -3 15 1 15
12 0 9 4 23 9 31 7 11 13 9 29 -7 l21 -21 15 24 c9 14 16 31 16 39 0 10 6 13
18 9 15 -6 15 -5 3 10 -7 9 -24 17 -36 17 -18 0 -21 -4 -18 -24 4 -21 2 -23
-21 -19 -30 6 -32 10 -9 35 15 17 15 18 -8 18 -22 0 -25 -4 -27 -46z"/>
<path d="M3410 1630 c0 -5 5 -10 10 -10 6 0 10 5 10 10 0 6 -4 10 -10 10 -5 0
-10 -4 -10 -10z"/>
<path d="M3555 1620 c3 -5 11 -10 16 -10 6 0 7 5 4 10 -3 6 -11 10 -16 10 -6
0 -7 -4 -4 -10z"/>
<path d="M3855 1620 c-120 -18 -275 -71 -490 -165 -386 -170 -522 -212 -730
-230 -166 -14 -417 31 -685 124 -63 22 -193 67 -289 101 -96 33 -213 72 -260
85 -95 26 -269 60 -276 53 -2 -2 0 -20 5 -40 10 -33 14 -36 58 -42 109 -16
274 -62 552 -156 449 -151 640 -192 870 -185 184 5 346 49 685 188 285 116
442 165 606 188 l86 12 -10 38 c-11 43 -17 45 -122 29z"/>
<path d="M3271 1563 c18 -21 37 -42 41 -47 5 -6 8 0 8 13 0 12 -4 20 -9 16 -5
-3 -18 8 -27 25 -10 16 -25 30 -33 30 -10 0 -3 -13 20 -37z"/>
<path d="M3440 1589 c0 -5 5 -7 10 -4 6 3 10 8 10 11 0 2 -4 4 -10 4 -5 0 -10
-5 -10 -11z"/>
<path d="M3190 1578 c0 -7 9 -24 20 -38 l21 -25 -7 30 c-4 17 -9 33 -11 38 -7
12 -23 8 -23 -5z"/>
<path d="M3140 1570 c0 -5 5 -10 10 -10 6 0 10 5 10 10 0 6 -4 10 -10 10 -5 0
-10 -4 -10 -10z"/>
<path d="M1565 1560 c3 -5 8 -10 11 -10 2 0 4 5 4 10 0 6 -5 10 -11 10 -5 0
-7 -4 -4 -10z"/>
<path d="M1766 1548 c-20 -29 -20 -42 0 -59 15 -12 16 -11 10 9 -5 15 -2 32 8
47 20 31 3 33 -18 3z"/>
<path d="M1890 1545 c0 -13 -5 -36 -12 -50 -6 -14 -8 -28 -3 -33 4 -4 10 -1
12 6 3 6 11 12 19 12 11 0 11 5 2 25 -8 18 -8 28 1 39 9 11 8 15 -4 20 -11 4
-15 -1 -15 -19z"/>
<path d="M3066 1534 c-3 -9 -2 -12 5 -8 6 3 33 -6 60 -21 61 -33 65 -16 5 19
-52 30 -62 32 -70 10z"/>
<path d="M1960 1520 c0 -5 5 -10 11 -10 5 0 7 5 4 10 -3 6 -8 10 -11 10 -2 0
-4 -4 -4 -10z"/>
<path d="M1685 1510 c3 -5 10 -10 16 -10 5 0 9 5 9 10 0 6 -7 10 -16 10 -8 0
-12 -4 -9 -10z"/>
<path d="M2020 1499 c0 -5 5 -7 10 -4 6 3 10 8 10 11 0 2 -4 4 -10 4 -5 0 -10
-5 -10 -11z"/>
<path d="M1933 1464 c-18 -28 -19 -33 -5 -39 22 -8 34 8 30 42 l-3 30 -22 -33z"/>
<path d="M2960 1488 c0 -7 10 -24 21 -38 15 -18 19 -20 15 -7 -3 10 -6 27 -6
38 0 10 -7 19 -15 19 -8 0 -15 -6 -15 -12z"/>
<path d="M3045 1468 c10 -31 24 -56 25 -41 0 6 3 18 6 26 3 10 -3 20 -16 27
-20 11 -21 10 -15 -12z"/>
<path d="M1998 1454 c-10 -17 -14 -35 -10 -38 3 -4 0 -11 -8 -16 -12 -8 -10
-10 8 -10 13 0 21 4 18 9 -4 5 -1 11 5 13 6 2 9 19 7 38 l-3 35 -17 -31z"/>
<path d="M2062 1446 c-12 -20 -17 -38 -13 -40 10 -6 48 61 39 69 -3 3 -15 -10
-26 -29z"/>
<path d="M2145 1460 c3 -5 11 -10 16 -10 6 0 7 5 4 10 -3 6 -11 10 -16 10 -6
0 -7 -4 -4 -10z"/>
<path d="M3116 1453 c-11 -11 -6 -23 9 -23 8 0 15 4 15 9 0 13 -16 22 -24 14z"/>
<path d="M2774 1435 c-4 -9 4 -23 19 -35 14 -11 28 -34 32 -50 7 -30 19 -38
30 -20 7 12 -52 120 -66 120 -5 0 -12 -7 -15 -15z"/>
<path d="M2865 1441 c-9 -16 18 -101 33 -101 14 0 10 36 -9 88 -9 24 -15 27
-24 13z"/>
<path d="M2215 1412 c5 -25 3 -31 -14 -37 -21 -6 -21 -6 1 -36 12 -16 26 -29
30 -29 15 0 5 123 -11 128 -10 3 -12 -3 -6 -26z"/>
<path d="M2120 1395 c-7 -14 -10 -28 -7 -31 4 -4 11 6 17 21 6 15 9 29 7 31
-2 2 -10 -7 -17 -21z"/>
<path d="M2686 1394 c-4 -14 -5 -29 -1 -32 3 -3 5 0 5 6 0 21 18 13 23 -10 3
-13 4 -5 4 16 -2 46 -22 59 -31 20z"/>
<path d="M2371 1391 c-8 -6 -9 -11 -3 -15 6 -3 14 -1 17 5 9 14 2 20 -14 10z"/>
<path d="M2035 1380 c3 -5 11 -10 16 -10 6 0 7 5 4 10 -3 6 -11 10 -16 10 -6
0 -7 -4 -4 -10z"/>
<path d="M2397 1372 c-10 -10 -17 -30 -17 -43 0 -33 27 -70 46 -62 13 5 13 7
0 22 -26 29 -31 70 -10 86 11 8 14 15 8 15 -6 0 -18 -8 -27 -18z"/>
<path d="M2460 1375 c9 -11 10 -25 2 -56 -9 -35 -8 -40 6 -37 31 6 22 108 -9
108 -8 0 -8 -4 1 -15z"/>
<path d="M2616 1348 c-8 -38 0 -66 14 -51 5 4 5 26 1 48 l-8 40 -7 -37z"/>
<path d="M2937 1374 c-8 -8 1 -24 14 -24 5 0 9 7 9 15 0 15 -12 20 -23 9z"/>
<path d="M2130 1350 c0 -5 5 -10 11 -10 5 0 7 5 4 10 -3 6 -8 10 -11 10 -2 0
-4 -4 -4 -10z"/>
<path d="M2545 1350 c-4 -6 -15 -8 -26 -5 -14 5 -17 2 -13 -9 3 -8 1 -23 -5
-34 -8 -16 -7 -21 5 -26 28 -11 35 -7 24 14 -8 14 -8 20 0 20 6 0 13 -7 16
-15 4 -8 12 -15 20 -15 18 0 18 9 -3 32 -9 11 -11 18 -5 18 7 0 12 7 12 15 0
17 -16 20 -25 5z"/>
<path d="M2355 1317 c-4 -10 -5 -21 -1 -24 10 -10 18 4 13 24 -4 17 -4 17 -12
0z"/>
<path d="M2704 1309 c-10 -16 2 -21 35 -14 43 9 46 22 6 23 -19 1 -37 -3 -41
-9z"/>
<path d="M622 1068 c-64 -77 -135 -129 -194 -143 -23 -6 -28 -4 -28 11 1 11 7
30 15 44 15 28 4 50 -24 50 -25 -1 -88 -58 -74 -68 6 -4 16 -19 22 -34 9 -24
7 -27 -20 -37 -34 -12 -34 -31 -1 -46 17 -7 22 -18 22 -46 0 -42 -25 -70 -88
-94 -34 -14 -42 -22 -40 -39 2 -11 6 -20 11 -18 4 1 19 2 33 2 16 0 28 7 30
18 5 16 123 86 132 78 9 -10 4 -133 -6 -153 -16 -29 -78 -71 -178 -121 -80
-41 -191 -82 -219 -82 -20 0 -19 -36 1 -44 45 -17 90 1 268 112 54 34 103 59
108 56 4 -3 8 -34 8 -68 l0 -64 -72 -35 c-40 -19 -83 -38 -96 -42 -21 -6 -22
-9 -9 -23 8 -10 18 -27 21 -39 9 -28 36 -19 85 26 18 17 37 31 41 31 5 0 7
-46 7 -103 l-2 -102 -33 3 -32 2 32 -49 c36 -54 65 -65 72 -28 4 19 22 197 29
282 2 28 4 30 47 31 37 0 46 4 48 21 3 22 -20 33 -73 33 l-30 0 5 71 c4 54 10
74 24 85 31 22 104 43 204 58 51 7 96 16 99 20 4 4 -1 14 -10 24 -17 16 -25
15 -156 -19 l-139 -36 6 40 c6 49 59 107 123 136 54 25 93 57 84 71 -10 17
-26 12 -63 -21 -41 -36 -50 -28 -28 26 19 44 19 45 5 45 -6 0 -18 -18 -26 -39
-20 -51 -56 -63 -87 -29 -18 20 -21 20 -24 5 -2 -9 -8 -17 -13 -17 -5 0 -9 -6
-9 -14 0 -13 -20 -26 -41 -26 -6 0 -9 24 -7 56 l3 56 55 22 c74 30 221 102
244 119 14 10 17 20 11 45 -9 42 -38 42 -73 0z"/>
<path d="M1226 872 c-21 -162 -22 -163 -145 -183 l-72 -12 43 -24 c35 -20 51
-23 85 -18 48 7 50 3 29 -47 -12 -27 -28 -41 -78 -66 -35 -16 -81 -35 -104
-41 -22 -6 -49 -20 -58 -30 -17 -19 -13 -18 68 4 84 23 86 23 96 4 16 -29 60
-24 135 17 37 19 70 33 73 30 3 -3 -29 -39 -70 -80 -55 -54 -73 -77 -65 -85 8
-8 8 -11 -1 -11 -7 0 -12 -5 -12 -11 0 -7 -7 -17 -17 -24 -14 -11 -13 -14 15
-30 17 -10 33 -27 35 -37 8 -31 21 -20 49 43 32 70 32 70 118 -27 66 -74 87
-85 111 -56 14 18 17 45 17 154 1 97 6 159 22 231 34 159 20 185 -67 124 -73
-52 -237 -132 -229 -112 3 9 6 23 6 31 0 23 66 89 140 140 77 52 79 70 12 76
-36 3 -37 4 -45 53 -10 61 -25 94 -53 112 -20 13 -21 11 -38 -125z m235 -331
c-26 -109 -32 -151 -27 -193 8 -64 -4 -112 -29 -117 -23 -4 -159 139 -145 153
13 13 13 39 0 31 -12 -7 54 99 78 127 13 16 13 18 0 23 -8 3 -52 -17 -99 -45
-62 -39 -88 -49 -99 -42 -8 5 -15 15 -15 22 0 15 7 19 91 53 33 14 105 52 159
86 64 39 103 57 109 51 6 -6 -2 -60 -23 -149z"/>
<path d="M4440 944 c28 -63 25 -77 -17 -107 l-36 -26 -27 19 c-15 11 -42 36
-59 55 -20 23 -39 35 -56 35 -32 0 -32 -5 8 -54 45 -55 57 -79 57 -115 0 -16
5 -33 10 -36 12 -7 -25 -65 -41 -65 -6 0 -25 16 -43 35 -19 19 -38 35 -43 35
-17 0 21 -121 42 -133 14 -8 20 -7 23 4 3 8 31 41 63 73 55 56 58 58 64 35 5
-21 12 -25 47 -25 61 -2 69 -26 13 -40 -67 -18 -133 -60 -202 -131 -66 -68
-125 -151 -120 -167 9 -27 56 -17 96 20 44 39 53 59 21 49 -26 -8 -25 -3 4 44
36 56 111 118 173 141 58 21 82 21 41 -1 -46 -24 -135 -98 -163 -136 l-28 -38
34 31 c53 48 138 108 204 144 33 18 67 38 75 45 8 7 30 20 49 30 33 16 35 16
47 0 28 -37 -32 -100 -159 -167 -28 -15 -64 -32 -80 -37 -32 -12 -27 -36 5
-27 18 4 20 1 14 -32 -3 -20 -6 -43 -6 -50 0 -13 -42 -34 -184 -93 -81 -33
-116 -58 -116 -83 0 -7 8 -16 18 -19 9 -2 25 -8 35 -12 11 -5 17 -3 17 7 0 24
35 49 105 74 103 37 101 38 110 -62 4 -47 4 -88 1 -91 -3 -4 -35 6 -71 20 -36
15 -71 27 -78 27 -17 -1 122 -89 150 -96 13 -4 23 -10 23 -15 0 -5 9 -9 20 -9
19 0 20 7 20 139 0 160 -4 154 102 155 31 1 59 4 63 8 5 5 -18 62 -31 77 -2 2
-19 -4 -37 -14 -23 -12 -43 -16 -61 -11 -25 6 -27 10 -21 38 4 17 19 41 33 53
22 19 24 25 14 38 -11 13 -3 22 55 60 90 60 123 90 123 115 0 23 -51 37 -95
26 l-27 -7 31 55 c33 59 71 160 71 190 0 10 -6 21 -14 24 -11 4 -108 -49 -224
-123 l-27 -18 29 35 c16 19 35 39 42 43 8 4 14 14 14 21 0 20 -77 86 -100 86
-19 0 -19 0 0 -46z m229 -81 c-18 -50 -84 -167 -96 -171 -17 -5 -28 45 -14 62
12 14 -3 38 -31 49 -18 8 13 33 77 63 67 32 77 31 64 -3z m-299 -113 c12 -23
7 -25 -21 -9 -11 5 -17 14 -14 20 10 15 23 11 35 -11z m129 -41 c9 -27 8 -30
-5 -25 -9 3 -22 6 -30 6 -11 0 -11 5 -2 25 15 33 24 32 37 -6z"/>
<path d="M3064 919 c-12 -4 -25 -12 -29 -18 -3 -6 -15 -11 -27 -11 -17 0 -19
-2 -7 -16 10 -13 10 -20 -5 -45 -22 -36 -10 -38 60 -5 52 24 69 46 59 76 -7
23 -24 29 -51 19z"/>
<path d="M1927 902 c-15 -3 -16 -5 -2 -25 29 -41 19 -65 -72 -166 -48 -53
-101 -111 -118 -130 -16 -19 20 7 80 58 190 159 195 164 195 197 0 49 -35 77
-83 66z"/>
<path d="M3623 774 c-2 -146 -19 -292 -34 -311 -18 -21 -102 -43 -167 -43
l-65 0 28 -26 c30 -28 50 -27 139 8 27 10 51 17 53 14 3 -2 -8 -32 -23 -66
-28 -63 -78 -116 -117 -124 -12 -3 -31 -7 -42 -9 -11 -3 2 -5 28 -6 57 -1 93
16 135 63 27 31 72 143 72 180 0 6 57 27 127 46 139 38 160 55 104 84 -40 21
-42 20 -35 -8 6 -26 14 -22 -159 -73 -15 -4 -18 -1 -14 14 3 10 11 47 17 83 7
36 24 83 37 106 12 22 23 47 23 55 0 36 -75 148 -100 149 -3 0 -6 -61 -7 -136z"/>
<path d="M2578 780 c-37 -56 -41 -76 -23 -104 10 -14 20 -26 24 -26 26 1 55
52 39 68 -6 6 -14 28 -17 49 l-7 38 -16 -25z"/>
<path d="M2760 781 l-55 -6 43 -17 c55 -23 89 -23 102 1 18 35 21 34 -90 22z"/>
<path d="M2180 680 c-47 -22 -91 -40 -97 -40 -7 0 -13 -4 -13 -10 0 -5 16 -10
35 -10 20 0 35 -5 35 -12 0 -6 8 -4 19 6 10 9 52 33 92 53 62 30 71 37 54 43
-31 13 -35 12 -125 -30z"/>
<path d="M3039 677 c-24 -11 -25 -14 -12 -33 13 -20 11 -25 -28 -62 l-43 -40
25 -36 c34 -51 66 -47 38 5 -15 29 -3 55 37 79 44 28 58 53 44 80 -12 22 -23
24 -61 7z"/>
<path d="M1904 635 c-5 -34 -14 -52 -38 -71 -17 -14 -25 -23 -18 -19 8 4 12
-1 12 -14 0 -12 -5 -21 -12 -21 -14 0 -3 -13 15 -17 49 -11 52 -9 52 31 0 31
4 40 23 47 19 7 22 14 16 31 -26 84 -40 94 -50 33z"/>
<path d="M2721 641 c-1 -35 -23 -94 -41 -109 -39 -33 -66 -46 -94 -47 -26 0
-31 -4 -31 -24 0 -36 19 -36 62 1 46 41 71 40 65 -3 -2 -16 -8 -32 -13 -35
-14 -8 -11 -24 5 -24 12 0 12 -6 3 -29 -7 -19 -26 -36 -54 -50 -52 -25 -73
-27 -73 -6 0 12 -9 9 -35 -12 -35 -28 -43 -47 -25 -58 5 -3 49 12 96 34 48 23
88 41 90 41 7 0 -29 -105 -38 -111 -14 -9 9 -86 28 -93 29 -11 34 4 34 104 l0
100 40 20 c21 11 44 29 50 39 15 28 12 61 -5 67 -21 9 -10 41 27 81 38 39 30
57 -23 48 -32 -6 -39 -4 -39 9 0 9 5 16 10 16 6 0 10 5 10 10 0 6 -6 10 -13
10 -8 0 -19 10 -25 23 l-11 22 0 -24z m74 -91 c4 -6 1 -17 -5 -25 -9 -11 -17
-12 -32 -4 -15 8 -17 13 -7 25 14 16 35 18 44 4z"/>
<path d="M2259 564 c-8 -9 -29 -23 -47 -31 -29 -12 -36 -12 -45 0 -7 8 -23 18
-36 22 -21 7 -23 5 -17 -18 3 -14 8 -32 12 -40 7 -18 -42 -45 -98 -53 -23 -4
-38 -12 -38 -21 0 -19 30 -28 49 -15 9 7 29 19 44 27 l28 16 -6 -153 c-3 -84
-6 -160 -7 -168 0 -8 0 -28 1 -45 3 -49 16 -13 50 140 40 177 41 179 107 250
35 39 54 67 52 80 -4 26 -31 31 -49 9z m17 -41 c-13 -16 -35 -41 -49 -58 -28
-33 -31 -32 -41 7 -6 25 -2 30 41 52 63 33 79 32 49 -1z"/>
<path d="M2912 519 c-12 -34 -28 -124 -39 -222 -5 -47 -5 -47 32 -63 30 -12
61 -14 154 -9 142 7 157 10 165 31 10 27 -45 196 -59 182 -3 -2 2 -26 10 -53
8 -26 15 -60 15 -74 0 -50 -9 -53 -139 -55 l-121 -1 -2 150 c-3 135 -4 146
-16 114z"/>
<path d="M1917 466 c-4 -9 -18 -18 -32 -22 -14 -3 -25 -13 -25 -21 0 -9 6 -13
15 -10 25 10 28 -13 5 -38 -14 -15 -18 -25 -10 -30 17 -11 47 36 54 84 6 46 3
63 -7 37z"/>
<path d="M890 336 c0 -98 7 -117 34 -91 11 12 14 28 9 68 -6 50 -28 117 -38
117 -3 0 -5 -42 -5 -94z"/>
<path d="M1748 320 c-3 -69 -1 -80 14 -80 18 0 38 47 38 89 0 27 -25 71 -40
71 -5 0 -10 -36 -12 -80z"/>
<path d="M3731 278 c30 -75 43 -95 66 -105 46 -20 66 -15 122 27 l53 40 -32 0
c-40 0 -146 51 -199 96 -21 19 -41 34 -44 34 -3 0 13 -42 34 -92z"/>
</g>
</svg>
